<svg width="222" height="222" viewBox="0 0 222 222" fill="none" xmlns="http://www.w3.org/2000/svg">
<circle cx="110.957" cy="110.957" r="110.957" fill="url(#paint0_linear_267_13783)"/>
<path d="M124.906 50.9291L112.806 36.566C112.398 36.0873 111.891 35.7028 111.32 35.4392C110.749 35.1755 110.128 35.039 109.499 35.039C108.87 35.039 108.249 35.1755 107.678 35.4392C107.107 35.7028 106.6 36.0873 106.192 36.566L94.0945 50.9291C82.3557 64.8636 75.9179 82.4977 75.9179 100.718C75.9179 118.938 82.3557 136.572 94.0945 150.507L105.219 163.721L105.179 184.264C105.179 185.403 105.631 186.495 106.437 187.3C107.242 188.106 108.334 188.558 109.473 188.558C110.612 188.558 111.705 188.106 112.51 187.3C113.315 186.495 113.768 185.403 113.768 184.264L113.809 163.65L124.901 150.481C136.639 136.546 143.076 118.912 143.076 100.692C143.076 82.4723 136.639 64.8384 124.901 50.9033L124.906 50.9291ZM88.4193 77.8966L105.183 94.6582V119.704L84.5284 99.0494C84.7074 91.838 86.0204 84.6997 88.4193 77.8966ZM113.809 94.6883L130.579 77.9181C133 84.7894 134.313 92.0019 134.47 99.2856C134.414 99.3371 134.356 99.3844 134.302 99.438L113.809 119.929V94.6883ZM118.329 56.4669C121.708 60.4799 124.615 64.8676 126.993 69.5438C126.697 69.722 126.423 69.9347 126.177 70.1772L113.809 82.5412V51.0966L118.329 56.4669ZM100.657 56.4669L105.177 51.0987V82.5133L92.3552 69.6941C92.2586 69.5975 92.1576 69.5073 92.0546 69.4214C94.423 64.7891 97.3111 60.4415 100.663 56.4626L100.657 56.4669ZM100.657 144.977C92.7522 135.583 87.5067 124.243 85.4646 112.137L105.177 131.851V150.339L100.657 144.977ZM118.329 144.977L113.809 150.345V132.094L133.478 112.427C131.399 124.424 126.174 135.656 118.335 144.973L118.329 144.977Z" fill="white"/>
<defs>
<linearGradient id="paint0_linear_267_13783" x1="110.957" y1="0" x2="110.957" y2="221.914" gradientUnits="userSpaceOnUse">
<stop stop-color="#5CC183"/>
<stop offset="1" stop-color="#10AC84"/>
</linearGradient>
</defs>
</svg>
